:SAMPLES-PER-SECOND 30
:FULLY-SPECIFIED
:DEGREES
569
root  -21.4664 31.632 -22.3753 169.378 67.6375 -9.69909
Spine  4.84479 10.1155 27.6713
Spine1  2.1549 -14.0208 -22.1678
Neck  3.97569e-016 0 -2.38542e-015
Head  1.09787 1.86122 0.952476
R_Clavicle  -2.51792 22.1362 -5.71115
R_UpperArm  66.253 25.5854 -2.72462
R_Forearm  53.6985 -7.55282 16.8243
R_Hand  -22.3004 9.19677 -126.37
L_Clavicle  0.806665 -9.00672 -2.59776
L_UpperArm  -34.7012 -31.5488 -23.5215
L_Forearm  -90.7273 3.85617 12.8659
L_Hand  20.4584 -32.435 -70.9396
L_Thigh  -11.2474 39.759 14.4987
L_Calf  -22.0012 -13.5597 52.857
L_Foot  -4.34452 -1.74495 -21.7455
L_Toe0  0.505198 0.0352981 -6.13604
R_Thigh  -6.65764 -59.394 38.5763
R_Calf  9.88303 11.9957 41.1967
R_Foot  -0.0521013 1.87981 6.05698
R_Toe0  -1.78853 -0.272788 -17.3235
570
root  -22.6567 31.058 -22.5922 137.481 79.3391 -30.6131
Spine  11.6412 17.4145 31.0768
Spine1  6.89332 -19.9455 -23.3385
Neck  3.97569e-016 0 -2.38542e-015
Head  2.3576 1.52667 1.32063
R_Clavicle  -2.27892 13.7341 -6.52244
R_UpperArm  56.1049 31.126 3.02087
R_Forearm  51.2044 -10.3578 11.9845
R_Hand  -38.6381 22.4515 -126.671
L_Clavicle  0.0449105 -11.4421 1.20903
L_UpperArm  -35.3535 -28.6459 -29.7974
L_Forearm  -84.1596 3.95479 16.2431
L_Hand  24.5539 -32.0217 -83.1354
L_Thigh  -12.8916 36.778 12.4959
L_Calf  -15.7229 -13.1482 49.3992
L_Foot  -4.62137 -4.13061 -22.6067
L_Toe0  0.505197 0.0352776 -6.13604
R_Thigh  -10.332 -60.7562 43.4979
R_Calf  10.5688 12.4371 45.3308
R_Foot  -0.821062 -0.525882 5.48964
R_Toe0  -1.78853 -0.272788 -17.3235
571
root  -23.5671 29.7315 -22.3287 -90.731 88.848 113.084
Spine  17.987 22.3468 35.6313
Spine1  11.1018 -22.8108 -25.0888
Neck  3.97569e-016 0 -2.38542e-015
Head  5.17969 1.07025 3.84747
R_Clavicle  -2.08104 7.90745 -7.3632
R_UpperArm  49.4664 29.2485 7.70881
R_Forearm  45.4519 -9.07963 3.29244
R_Hand  -46.7933 45.5182 -108.642
L_Clavicle  -0.631595 -9.0991 3.79677
L_UpperArm  -37.8981 -22.4666 -27.9945
L_Forearm  -76.3011 5.21059 17.6956
L_Hand  25.2125 -32.7143 -83.6674
L_Thigh  -16.784 33.4959 7.82562
L_Calf  -8.0306 -10.6773 45.0014
L_Foot  -4.70329 -5.98505 -22.4524
L_Toe0  0.505196 0.0352572 -6.13604
R_Thigh  -12.2897 -60.337 46.9655
R_Calf  9.27355 11.9938 48.102
R_Foot  -0.789422 -0.557686 5.1555
R_Toe0  -1.78853 -0.272788 -17.3235
572
root  -23.8156 27.785 -21.7014 -29.9644 73.8725 -172.992
Spine  21.8828 23.772 37.854
Spine1  13.3809 -19.8914 -25.4711
Neck  3.97569e-016 0 -2.38542e-015
Head  9.4045 1.99139 7.24486
R_Clavicle  -1.57174 5.11433 -6.17354
R_UpperArm  32.8181 33.0513 -3.67535
R_Forearm  19.4919 -23.2327 10.9649
R_Hand  -4.07887 46.7873 -23.6524
L_Clavicle  -0.644609 -5.45065 4.26228
L_UpperArm  -42.0873 -14.1887 -18.9998
L_Forearm  -68.5182 4.34999 16.1777
L_Hand  27.9071 -34.1317 -86.6184
L_Thigh  -25.5104 31.0064 0.369458
L_Calf  2.83926 -7.59715 40.1838
L_Foot  -4.14154 -4.75375 -19.2648
L_Toe0  0.505195 0.0352369 -6.13604
R_Thigh  -13.1951 -57.7729 49.7124
R_Calf  7.79549 11.3341 50.4609
R_Foot  -0.585167 -0.27693 4.2613
R_Toe0  -1.78853 -0.272788 -17.3235
573
root  -23.3479 25.6299 -21.045 -48.8613 60.8346 -179.295
Spine  22.4374 25.1583 34.7891
Spine1  12.4825 -12.9568 -23.4749
Neck  3.97569e-016 0 -2.38542e-015
Head  13.3228 5.11475 12.8968
R_Clavicle  -1.27988 4.69376 -5.0167
R_UpperArm  2.39852 28.4144 -15.7059
R_Forearm  18.5448 -27.4262 19.5114
R_Hand  0.608253 12.6985 -8.53004
L_Clavicle  -0.311324 -0.360931 2.36976
L_UpperArm  -47.9422 -4.45112 -6.85448
L_Forearm  -60.2499 2.98042 16.006
L_Hand  32.215 -35.3743 -92.5601
L_Thigh  -32.6348 28.5538 -5.43889
L_Calf  12.3196 -4.81443 36.1015
L_Foot  -3.30943 -3.25297 -14.7704
L_Toe0  0.505194 0.0352169 -6.13604
R_Thigh  -12.0858 -54.7292 51.5296
R_Calf  6.14777 11.0448 52.3428
R_Foot  -0.519696 -0.514277 3.0711
R_Toe0  -1.78853 -0.272788 -17.3235
574
root  -22.3398 23.3949 -20.6683 -58.5547 48.735 -177.766
Spine  19.8421 27.1705 29.0565
Spine1  9.02119 -5.24561 -20.3374
Neck  3.97569e-016 0 -2.38542e-015
Head  15.8302 8.27953 22.0324
R_Clavicle  -1.74156 10.5476 -5.65237
R_UpperArm  -3.20438 15.3088 -12.2514
R_Forearm  14.7594 -7.89294 7.04258
R_Hand  2.23776 5.99136 10.4663
L_Clavicle  0.0160123 1.73055 -0.512101
L_UpperArm  -53.6813 7.15546 5.83369
L_Forearm  -55.0693 2.34839 17.7929
L_Hand  35.5116 -35.1239 -98.9491
L_Thigh  -27.353 24.6151 -8.78885
L_Calf  11.9431 -4.37812 33.5456
L_Foot  -2.80367 -4.95262 -10.0673
L_Toe0  0.505193 0.0351969 -6.13604
R_Thigh  -11.6114 -52.614 53.4738
R_Calf  4.29393 11.3155 52.7035
R_Foot  -0.322365 0.0419391 2.90091
R_Toe0  -1.78853 -0.272788 -17.3235
575
root  -20.9357 21.1001 -20.7514 -67.6694 37.9002 -176.471
Spine  14.8764 28.8611 22.7638
Spine1  4.25536 1.16325 -16.8945
Neck  3.97569e-016 0 -2.38542e-015
Head  17.7223 9.38005 32.9165
R_Clavicle  -1.37644 22.432 -2.64837
R_UpperArm  4.74024 6.10424 -11.557
R_Forearm  6.70968 8.94514 -7.54128
R_Hand  2.44143 4.18116 16.3468
L_Clavicle  0.285463 1.13343 -2.42415
L_UpperArm  -56.1641 21.7888 17.5397
L_Forearm  -56.7176 1.53716 18.9302
L_Hand  34.955 -30.8766 -107.512
L_Thigh  -16.8104 19.7823 -9.80031
L_Calf  9.01843 -4.21951 31.934
L_Foot  -1.67251 -4.12177 -4.18609
L_Toe0  0.505192 0.0351772 -6.13604
R_Thigh  -12.2154 -50.786 55.6581
R_Calf  3.48425 11.6086 52.1693
R_Foot  -0.288391 0.117895 2.82724
R_Toe0  -1.78853 -0.272788 -17.3235
576
root  -19.3281 18.9018 -21.4139 -78.0703 28.0441 -175.4
Spine  9.45867 28.6632 17.6141
Spine1  -0.0295507 6.36084 -13.594
Neck  3.97569e-016 0 -2.38542e-015
Head  18.9709 8.67034 42.5715
R_Clavicle  0.819524 31.5647 3.09436
R_UpperArm  15.3274 5.22969 -8.30624
R_Forearm  -0.509348 24.5942 -22.3766
R_Hand  2.46712 6.28743 10.9619
L_Clavicle  0.37287 0.551758 -2.85623
L_UpperArm  -55.3904 38.8502 26.2978
L_Forearm  -65.1406 -0.0383012 18.2588
L_Hand  20.5081 -18.8438 -113.517
L_Thigh  -11.5421 16.6026 -9.86371
L_Calf  9.33791 -4.14175 31.2964
L_Foot  0.587953 1.12821 1.50555
L_Toe0  0.505191 0.0351576 -6.13605
R_Thigh  -13.1105 -47.1488 57.5845
R_Calf  2.5496 11.2834 52.1242
R_Foot  -0.36105 -0.84564 0.948592
R_Toe0  -1.78853 -0.272788 -17.3235
577
root  -17.822 17.0498 -22.6716 -89.4956 18.7306 -174.751
Spine  5.72102 26.5817 14.448
Spine1  -2.49261 11.0537 -10.9703
Neck  3.97569e-016 0 -2.38542e-015
Head  17.4884 7.19492 48.0717
R_Clavicle  1.71075 32.0961 4.96233
R_UpperArm  32.4477 11.3243 3.92671
R_Forearm  -5.08157 33.4817 -33.355
R_Hand  1.07768 6.40712 -0.729235
L_Clavicle  0.191942 1.80349 -1.93662
L_UpperArm  -57.0078 51.3784 29.4813
L_Forearm  -68.0481 1.10318 21.0964
L_Hand  2.85978 -7.38847 -116.712
L_Thigh  -13.5313 16.1982 -9.1595
L_Calf  12.0612 -4.27785 32.5221
L_Foot  1.12081 0.70927 4.61069
L_Toe0  0.50519 0.0351382 -6.13605
R_Thigh  -13.1389 -42.6653 58.3468
R_Calf  -0.757228 10.464 52.8779
R_Foot  -0.121588 -1.08081 -1.54323
R_Toe0  -1.78853 -0.272788 -17.3235
578
root  -16.5102 15.6348 -24.344 -98.4883 8.76982 -175.346
Spine  3.49894 23.8464 12.7879
Spine1  -3.8347 15.5276 -9.31495
Neck  3.97569e-016 0 -2.38542e-015
Head  12.6348 5.53593 48.3609
R_Clavicle  1.96552 27.4777 5.80094
R_UpperArm  54.0836 12.9651 20.4085
R_Forearm  -4.79629 36.3881 -37.771
R_Hand  -0.762612 8.4513 -17.8948
L_Clavicle  0.023162 3.04914 -0.928624
L_UpperArm  -60.5616 58.4848 28.9904
L_Forearm  -62.2045 3.88211 25.3749
L_Hand  -6.38751 -1.86169 -119.446
L_Thigh  -16.163 17.1074 -6.71747
L_Calf  14.2063 -4.48118 34.1678
L_Foot  -0.262611 -5.41404 7.03635
L_Toe0  0.505189 0.035119 -6.13605
R_Thigh  -12.9008 -42.1556 57.6429
R_Calf  -4.20492 9.66281 53.6811
R_Foot  -0.0234553 -1.07072 -2.31279
R_Toe0  -1.78853 -0.272788 -17.3235
579
root  -15.3431 14.6587 -26.3804 -104.798 -2.60323 -176.421
Spine  2.07133 21.128 11.6095
Spine1  -4.37478 18.9535 -7.26855
Neck  3.97569e-016 0 -2.38542e-015
Head  7.04571 3.69039 46.3481
R_Clavicle  2.76785 20.7426 8.7713
R_UpperArm  71.8727 3.80066 33.7514
R_Forearm  -1.74419 38.2921 -41.0082
R_Hand  -4.44671 12.527 -39.5749
L_Clavicle  -0.107912 4.4065 -0.158647
L_UpperArm  -63.1978 62.9813 28.4211
L_Forearm  -43.7426 4.05455 25.4422
L_Hand  -1.71343 -4.67777 -120.607
L_Thigh  -19.576 19.4735 -2.42735
L_Calf  15.8042 -4.60895 35.0317
L_Foot  -0.602356 -7.85189 10.2146
L_Toe0  0.505188 0.0350999 -6.13605
R_Thigh  -12.9818 -45.7341 55.1923
R_Calf  -4.06706 8.87758 54.3026
R_Foot  -0.380814 -2.49102 -2.44241
R_Toe0  -1.78853 -0.272788 -17.3235
580
root  -14.5029 14.1843 -28.6586 -111.595 -14.6306 -175.709
Spine  1.18099 18.6205 10.5295
Spine1  -3.97048 20.9591 -3.66579
Neck  3.97569e-016 0 -2.38542e-015
Head  3.5724 1.93748 46.4152
R_Clavicle  1.74473 12.9144 6.0015
R_UpperArm  78.6339 -8.2699 43.5186
R_Forearm  4.52629 36.3672 -37.74
R_Hand  -7.67504 12.1594 -58.2507
L_Clavicle  -0.29046 7.41478 1.07615
L_UpperArm  -76.026 66.5775 25.9441
L_Forearm  -2.61511 1.78998 17.3664
L_Hand  19.4487 -17.9646 -115.119
L_Thigh  -24.675 24.9631 2.32836
L_Calf  16.0037 -5.10651 36.3798
L_Foot  -0.595103 -7.93114 10.9208
L_Toe0  0.505187 0.035081 -6.13605
R_Thigh  -11.0325 -50.0523 49.6468
R_Calf  -2.58886 8.46377 55.1575
R_Foot  -0.61214 -4.45328 -4.3318
R_Toe0  -1.78853 -0.272788 -17.3235
581
root  -14.1171 14.2321 -30.8249 -122.091 -26.2191 -171.368
Spine  1.15792 16.6826 10.5395
Spine1  -2.55547 21.6081 1.18791
Neck  3.97569e-016 0 -2.38542e-015
Head  1.93769 0.520303 49.2875
R_Clavicle  1.44129 -0.477776 8.12054
R_UpperArm  73.0657 -14.6422 53.472
R_Forearm  12.0949 25.2358 -23.0804
R_Hand  -8.78102 10.9128 -66.9499
L_Clavicle  -0.420787 10.4957 2.62438
L_UpperArm  -91.0017 69.8999 27.8383
L_Forearm  35.3121 3.01054 3.87654
L_Hand  30.3968 -29.3695 -102.8
L_Thigh  -25.6006 33.1272 5.39454
L_Calf  5.65518 -7.70101 40.6595
L_Foot  3.368 2.48416 12.0395
L_Toe0  0.505187 0.0350623 -6.13605
R_Thigh  -5.74856 -52.7708 40.3952
R_Calf  -3.05562 8.7821 55.698
R_Foot  -0.436983 -5.14289 -6.53452
R_Toe0  -1.78853 -0.272788 -17.3235
582
root  -13.8588 14.543 -33.0665 -136.755 -35.916 -164.283
Spine  2.19544 15.6714 10.7759
Spine1  -0.425418 20.8213 5.77085
Neck  3.97569e-016 0 -2.38542e-015
Head  -0.213402 -0.622621 52.2215
R_Clavicle  0.630326 -14.6431 4.93523
R_UpperArm  63.1139 -17.1369 64.3248
R_Forearm  15.0378 7.3392 -6.15125
R_Hand  -8.06093 10.4385 -64.1131
L_Clavicle  -0.463495 12.5398 3.62033
L_UpperArm  -78.395 72.8623 42.3089
L_Forearm  54.5901 -2.57712 -3.12988
L_Hand  30.1489 -37.0791 -84.9344
L_Thigh  -19.6914 41.7389 9.73743
L_Calf  -22.761 -11.4727 46.6892
L_Foot  26.1039 34.9608 31.1862
L_Toe0  0.505186 0.0350439 -6.13606
R_Thigh  -0.540067 -54.7532 31.0212
R_Calf  -1.8388 9.17805 55.96
R_Foot  0.0622655 -3.64917 -7.63915
R_Toe0  -1.78853 -0.272788 -17.3235
